<svg width="16" height="16" viewBox="0 0 16 16" fill="none" xmlns="http://www.w3.org/2000/svg">
<path d="M7.99991 1.33301C7.12443 1.33301 6.25752 1.50545 5.44869 1.84048C4.63985 2.17551 3.90492 2.66657 3.28587 3.28563C2.03562 4.53587 1.33324 6.23156 1.33324 7.99967C1.32798 9.539 1.86093 11.0318 2.83991 12.2197L1.50658 13.553C1.41407 13.6468 1.35141 13.7658 1.32649 13.8951C1.30158 14.0245 1.31552 14.1583 1.36658 14.2797C1.42195 14.3996 1.51171 14.5004 1.62448 14.5693C1.73724 14.6381 1.86791 14.6719 1.99991 14.6663H7.99991C9.76802 14.6663 11.4637 13.964 12.714 12.7137C13.9642 11.4635 14.6666 9.76779 14.6666 7.99967C14.6666 6.23156 13.9642 4.53587 12.714 3.28563C11.4637 2.03539 9.76802 1.33301 7.99991 1.33301ZM7.99991 13.333H3.60658L4.22658 12.713C4.35074 12.5881 4.42044 12.4191 4.42044 12.243C4.42044 12.0669 4.35074 11.8979 4.22658 11.773C3.35363 10.901 2.81003 9.75337 2.68837 8.52554C2.56672 7.29771 2.87454 6.06568 3.5594 5.03936C4.24425 4.01303 5.26377 3.25591 6.44425 2.89699C7.62474 2.53807 8.89315 2.59954 10.0334 3.07095C11.1736 3.54236 12.1151 4.39452 12.6975 5.48227C13.2799 6.57001 13.4672 7.82604 13.2273 9.03635C12.9875 10.2467 12.3354 11.3364 11.3823 12.1198C10.4291 12.9033 9.23375 13.332 7.99991 13.333Z" fill="black"/>
</svg>
