<svg width="246" height="25" viewBox="0 0 246 25" fill="none" xmlns="http://www.w3.org/2000/svg">
<path d="M18.7383 4.12891H36.5075V7.89184H29.5082V23.9985H25.7119V7.89184H18.7383V4.12891Z" fill="#0c7a50"/>
<path d="M57.7105 4.12891V16.9048C57.7105 22.0751 55.8123 23.9985 50.6991 23.9985H45.5311C40.4138 23.9985 38.5156 22.0751 38.5156 16.9048V4.12891H42.3119V17.5389C42.3119 19.7032 42.8392 20.2363 45.0046 20.2363H51.2513C53.3918 20.2363 53.915 19.704 53.915 17.5389V4.12891H57.7113H57.7105Z" fill="#0c7a50"/>
<path d="M18.0703 17.8685V18.173C18.0703 22.2566 15.9717 23.9985 11.0549 23.9985H0V20.2355H11.5813C14.274 20.2355 14.274 19.166 14.274 18.5278V17.4876C14.274 16.8153 14.274 15.8052 11.5813 15.8052H6.74014C2.31272 15.8052 0.251155 14.034 0.251155 10.2336V9.70127C0.251155 5.84555 2.41254 4.12891 7.2666 4.12891H16.8161V7.89184H6.74014C4.04747 7.89184 4.04747 8.94836 4.04747 9.34638V10.6145C4.04747 11.0419 4.04747 12.0438 6.74014 12.0438H11.5813C16.0047 12.0438 18.0703 13.8956 18.0703 17.8694V17.8685Z" fill="#0c7a50"/>
<path d="M73.3378 4.12891H60.0547V23.9985H73.3378C78.455 23.9985 80.3532 22.0751 80.3532 16.9048V11.2226C80.3532 6.05229 78.455 4.12891 73.3378 4.12891ZM73.8642 20.2355H63.851V7.89184H73.8642C76.0047 7.89184 76.5569 8.45022 76.5569 10.6145V17.5397C76.5569 19.704 76.0296 20.2372 73.8642 20.2372V20.2355Z" fill="#0c7a50"/>
<path d="M123.203 4.12891H118.111C112.994 4.12891 111.096 6.05229 111.096 11.2226V23.9985H114.892V17.6569H126.423V23.9985H130.22V11.2226C130.22 6.05229 128.318 4.12891 123.204 4.12891H123.203ZM114.892 10.6137C114.892 8.4494 115.444 7.89103 117.585 7.89103H123.756C125.896 7.89103 126.423 8.42336 126.423 10.6137V13.894H114.892V10.6137Z" fill="#0c7a50"/>
<path d="M137.863 4.12891H134.066V23.9985H137.863V4.12891Z" fill="#0c7a50"/>
<path d="M103.968 3.96094L99.7237 14.1411C99.3429 15.0503 98.4607 15.6421 97.4866 15.6421H94.125V23.9998H90.3287V15.6421H87.1723C86.1983 15.6421 85.316 15.0503 84.9353 14.1411L80.6914 3.96094H84.8097L88.0836 11.8034H96.5754L99.8493 3.96094H103.968Z" fill="#0c7a50"/>
<path d="M170.131 12.8203V18.269C170.091 18.2795 170.051 18.2893 170.012 18.2999C167.751 18.8859 165.461 19.3548 163.181 19.8668C160.418 20.4878 157.866 21.4817 156.112 23.9073C156.093 23.9349 156.043 23.9406 155.915 23.9992C155.053 22.7815 153.959 21.8553 152.648 21.1821C150.805 20.2355 148.798 19.8521 146.804 19.4256C145.151 19.0723 143.495 18.7329 141.865 18.2958V12.8464C143.495 13.2835 145.151 13.6229 146.804 13.9769C148.797 14.4035 150.805 14.7877 152.648 15.7335C153.959 16.4058 155.053 17.3329 155.915 18.5506C156.043 18.492 156.093 18.4863 156.112 18.4586C157.866 16.0314 160.418 15.0392 163.181 14.4181C165.461 13.9061 167.751 13.4381 170.012 12.8512C170.051 12.8398 170.091 12.8309 170.131 12.8203Z" fill="#0c7a50"/>
<path d="M164.554 2.90169C164.55 2.96925 164.493 3.01971 164.405 3.03681C164.344 3.0482 164.284 3.06041 164.223 3.07262C164.147 3.08727 164.07 3.09948 163.994 3.11902C163.885 3.14669 163.778 3.17762 163.67 3.21018C163.595 3.23297 163.521 3.26146 163.446 3.28751C163.31 3.33553 163.181 3.39983 163.06 3.47797C162.919 3.56914 162.787 3.67495 162.687 3.81251C162.616 3.91019 162.548 4.01112 162.493 4.11856C162.43 4.24065 162.378 4.36844 162.331 4.49786C162.296 4.59635 162.272 4.69891 162.246 4.80066C162.214 4.92763 162.185 5.05543 162.155 5.18403C162.141 5.24996 162.131 5.31752 162.115 5.38345C162.098 5.45264 162.052 5.48601 161.98 5.4852C161.9 5.49415 161.848 5.41194 161.836 5.35252C161.805 5.1938 161.772 5.03508 161.737 4.87798C161.713 4.77054 161.685 4.6631 161.654 4.55728C161.629 4.47507 161.598 4.39531 161.565 4.31635C161.532 4.23658 161.493 4.15844 161.455 4.0803C161.381 3.92891 161.279 3.79705 161.16 3.67984C161.019 3.54146 160.856 3.43728 160.678 3.35425C160.521 3.28099 160.36 3.22402 160.193 3.17681C160.076 3.14425 159.958 3.11251 159.84 3.08483C159.758 3.06611 159.675 3.05634 159.593 3.04088C159.555 3.03355 159.518 3.0246 159.483 3.00913C159.432 2.98716 159.413 2.94239 159.412 2.88867C159.412 2.83332 159.425 2.78448 159.48 2.7625C159.516 2.74704 159.555 2.73727 159.593 2.72913C159.74 2.69576 159.886 2.66401 160.034 2.63146C160.078 2.62169 160.122 2.61273 160.166 2.59971C160.294 2.55983 160.423 2.52564 160.547 2.47518C160.658 2.42959 160.762 2.36773 160.868 2.31076C161.019 2.23017 161.144 2.11703 161.256 1.98843C161.351 1.87936 161.428 1.75726 161.487 1.62377C161.53 1.52854 161.575 1.43412 161.613 1.33645C161.644 1.25586 161.666 1.17121 161.689 1.08737C161.712 1.00923 161.734 0.93028 161.753 0.851326C161.767 0.796791 161.778 0.740628 161.788 0.684464C161.805 0.596557 161.82 0.507021 161.835 0.419114C161.846 0.358881 161.875 0.310857 161.933 0.291322C161.99 0.272601 162.054 0.276671 162.089 0.33202C162.116 0.374346 162.127 0.428881 162.139 0.479347C162.162 0.584347 162.18 0.690976 162.203 0.795977C162.228 0.905861 162.254 1.01656 162.285 1.12563C162.311 1.21598 162.343 1.30389 162.375 1.3918C162.399 1.4561 162.428 1.51959 162.455 1.58226C162.52 1.72959 162.604 1.86471 162.709 1.9868C162.851 2.15366 163.021 2.28552 163.218 2.37913C163.329 2.43122 163.443 2.47762 163.558 2.52157C163.725 2.58587 163.898 2.63064 164.075 2.66483C164.187 2.6868 164.3 2.71204 164.413 2.73401C164.509 2.75274 164.558 2.80971 164.554 2.90169H164.554Z" fill="#0c7a50"/>
<path d="M153.579 1.84075C153.577 1.88796 153.536 1.92378 153.474 1.93517C153.431 1.94331 153.388 1.95145 153.346 1.96041C153.293 1.97099 153.239 1.97913 153.185 1.99296C153.109 2.0125 153.033 2.03448 152.958 2.05727C152.905 2.07355 152.853 2.09308 152.801 2.1118C152.705 2.14599 152.615 2.19076 152.529 2.24611C152.43 2.31041 152.338 2.38448 152.267 2.48134C152.217 2.54971 152.17 2.62134 152.131 2.69623C152.087 2.78169 152.05 2.87204 152.017 2.96239C151.992 3.03158 151.976 3.10402 151.959 3.17483C151.936 3.26437 151.915 3.3539 151.895 3.44425C151.885 3.49065 151.878 3.53786 151.867 3.58425C151.856 3.63309 151.822 3.6567 151.772 3.65588C151.716 3.66239 151.679 3.6046 151.671 3.56309C151.649 3.45158 151.627 3.34007 151.602 3.22937C151.585 3.15367 151.566 3.07797 151.543 3.0039C151.526 2.94611 151.504 2.88995 151.481 2.8346C151.457 2.77844 151.431 2.7239 151.403 2.66936C151.351 2.56274 151.28 2.47076 151.196 2.38773C151.097 2.29006 150.982 2.21762 150.857 2.15901C150.747 2.10773 150.634 2.06703 150.517 2.03448C150.435 2.01169 150.352 1.98889 150.269 1.97017C150.212 1.95715 150.154 1.95064 150.096 1.93924C150.069 1.93436 150.043 1.92785 150.019 1.91727C149.983 1.9018 149.97 1.87006 149.969 1.83261C149.969 1.79354 149.978 1.75936 150.016 1.74389C150.042 1.73331 150.069 1.7268 150.096 1.72029C150.199 1.69668 150.302 1.67471 150.405 1.65192C150.436 1.6454 150.467 1.63889 150.498 1.62912C150.587 1.60145 150.679 1.57703 150.766 1.54122C150.844 1.50947 150.917 1.46552 150.991 1.42563C151.097 1.36866 151.185 1.2897 151.263 1.19935C151.33 1.12284 151.385 1.03656 151.427 0.942957C151.457 0.876212 151.489 0.809468 151.515 0.741095C151.537 0.684118 151.552 0.624699 151.569 0.566094C151.585 0.510745 151.6 0.456209 151.614 0.400046C151.624 0.36179 151.632 0.321906 151.639 0.282836C151.65 0.220975 151.661 0.1583 151.672 0.0964394C151.679 0.0541135 151.7 0.0199272 151.741 0.00690385C151.782 -0.00611949 151.826 -0.00286366 151.85 0.0353924C151.869 0.0655089 151.877 0.102951 151.885 0.138765C151.902 0.212836 151.914 0.28772 151.93 0.360976C151.947 0.438302 151.966 0.515628 151.988 0.592141C152.006 0.655629 152.029 0.71749 152.051 0.779351C152.068 0.824933 152.088 0.868887 152.108 0.913654C152.153 1.01703 152.212 1.11226 152.285 1.19773C152.385 1.31494 152.504 1.40773 152.643 1.47284C152.721 1.50947 152.801 1.54203 152.882 1.57296C153 1.61854 153.121 1.64947 153.245 1.67389C153.325 1.68936 153.403 1.70726 153.483 1.72192C153.55 1.73494 153.585 1.77482 153.582 1.83913L153.579 1.84075Z" fill="#0c7a50"/>
<path d="M160.285 8.29484C160.278 8.40717 160.183 8.49182 160.035 8.5195C159.934 8.53822 159.833 8.55857 159.732 8.57892C159.604 8.60415 159.476 8.62368 159.35 8.65624C159.168 8.70182 158.988 8.75392 158.81 8.80845C158.684 8.84671 158.56 8.89392 158.435 8.93787C158.208 9.01845 157.994 9.1259 157.792 9.25613C157.555 9.40834 157.336 9.58416 157.17 9.81451C157.052 9.9773 156.938 10.1458 156.846 10.3249C156.741 10.5275 156.654 10.7424 156.576 10.9573C156.516 11.1209 156.478 11.2927 156.435 11.462C156.382 11.6744 156.332 11.8877 156.284 12.1009C156.259 12.2116 156.243 12.3231 156.217 12.433C156.19 12.5486 156.111 12.6039 155.991 12.6031C155.859 12.6186 155.771 12.481 155.751 12.3817C155.698 12.1172 155.645 11.8527 155.586 11.5898C155.546 11.4099 155.501 11.2316 155.448 11.055C155.407 10.9182 155.354 10.7847 155.3 10.6537C155.244 10.5202 155.18 10.39 155.117 10.2606C154.993 10.0082 154.824 9.78846 154.624 9.59311C154.39 9.36195 154.118 9.18857 153.822 9.0502C153.56 8.92729 153.29 8.83206 153.013 8.75392C152.818 8.69857 152.621 8.64648 152.423 8.60089C152.288 8.56915 152.15 8.55368 152.013 8.52682C151.95 8.51461 151.887 8.49915 151.829 8.47473C151.745 8.43892 151.712 8.36322 151.711 8.27368C151.709 8.1817 151.733 8.10031 151.824 8.06287C151.884 8.03763 151.948 8.02135 152.013 8.0067C152.257 7.95135 152.502 7.89845 152.747 7.84391C152.82 7.82763 152.895 7.81298 152.967 7.79019C153.18 7.72426 153.397 7.66647 153.604 7.58263C153.788 7.50693 153.962 7.40356 154.139 7.30914C154.39 7.17484 154.599 6.986 154.785 6.77111C154.944 6.58879 155.073 6.3853 155.172 6.16308C155.244 6.00436 155.319 5.84645 155.382 5.68366C155.433 5.54855 155.469 5.40773 155.51 5.26854C155.548 5.13831 155.583 5.00645 155.616 4.8754C155.639 4.78424 155.657 4.69063 155.675 4.59784C155.702 4.45051 155.727 4.30237 155.752 4.15505C155.77 4.05493 155.818 3.97435 155.915 3.9426C156.012 3.91086 156.117 3.919 156.175 4.01098C156.221 4.08179 156.239 4.17214 156.258 4.25679C156.298 4.43179 156.327 4.60924 156.366 4.78505C156.407 4.96901 156.452 5.15296 156.504 5.33447C156.547 5.48424 156.6 5.63157 156.654 5.77808C156.695 5.88553 156.741 5.99053 156.788 6.09634C156.897 6.34216 157.037 6.56762 157.211 6.77111C157.448 7.04949 157.731 7.26926 158.06 7.42472C158.245 7.51182 158.436 7.58914 158.627 7.6624C158.906 7.76984 159.195 7.84473 159.489 7.9017C159.677 7.93833 159.864 7.97984 160.052 8.01647C160.213 8.0474 160.295 8.14263 160.287 8.29566L160.285 8.29484Z" fill="#0c7a50"/>
<path d="M183.811 22.168C181.291 22.168 179.611 20.284 179.611 17.704C179.611 15.124 181.291 13.252 183.811 13.252C186.331 13.252 188.011 15.124 188.011 17.704C188.011 20.284 186.331 22.168 183.811 22.168ZM183.811 21.208C185.971 21.208 186.931 19.552 186.931 17.704C186.931 15.856 185.971 14.212 183.811 14.212C181.651 14.212 180.691 15.856 180.691 17.704C180.691 19.552 181.651 21.208 183.811 21.208ZM191.83 15.712C192.058 15.712 192.226 15.724 192.394 15.748V16.708H192.37C191.038 16.492 190.114 17.428 190.114 18.736V22H189.154V15.88H190.114V17.092H190.138C190.462 16.288 190.954 15.712 191.83 15.712ZM197.389 15.88H198.349V21.664C198.349 23.296 197.317 24.124 195.637 24.124C193.957 24.124 192.961 23.236 192.865 22.192H193.825C193.945 22.816 194.449 23.284 195.589 23.284C196.729 23.284 197.389 22.792 197.389 21.652V20.728H197.365C197.005 21.256 196.429 21.688 195.421 21.688C193.909 21.688 192.685 20.716 192.685 18.7C192.685 16.684 193.909 15.712 195.421 15.712C196.429 15.712 197.005 16.168 197.365 16.636H197.389V15.88ZM195.541 20.848C196.681 20.848 197.389 20.14 197.389 18.7C197.389 17.26 196.681 16.552 195.541 16.552C194.281 16.552 193.645 17.5 193.645 18.7C193.645 19.9 194.281 20.848 195.541 20.848ZM203.41 17.44C203.41 16.96 203.146 16.552 202.162 16.552C200.998 16.552 200.614 16.888 200.554 17.776H199.594C199.654 16.6 200.386 15.712 202.162 15.712C203.326 15.712 204.37 16.168 204.37 17.644V20.62C204.37 21.1 204.454 21.364 205.066 21.292V21.964C204.814 22.048 204.682 22.06 204.502 22.06C203.926 22.06 203.578 21.904 203.41 21.232H203.386C203.002 21.808 202.318 22.168 201.31 22.168C200.074 22.168 199.294 21.46 199.294 20.428C199.294 19.036 200.326 18.676 201.91 18.376C202.942 18.184 203.41 18.052 203.41 17.44ZM201.406 21.328C202.546 21.328 203.41 20.812 203.41 19.636V18.616C203.23 18.796 202.642 18.964 201.994 19.096C200.806 19.348 200.254 19.648 200.254 20.38C200.254 20.98 200.614 21.328 201.406 21.328ZM208.783 15.712C209.899 15.712 210.835 16.324 210.835 17.728V22H209.875V17.968C209.875 17.176 209.503 16.552 208.543 16.552C207.463 16.552 206.743 17.236 206.743 18.184V22H205.783V15.88H206.743V16.612H206.767C207.091 16.18 207.739 15.712 208.783 15.712ZM212.723 14.692C212.459 14.692 212.123 14.488 212.123 14.116C212.123 13.744 212.459 13.54 212.723 13.54C212.999 13.54 213.323 13.744 213.323 14.116C213.323 14.488 212.999 14.692 212.723 14.692ZM212.243 15.88H213.203V22H212.243V15.88ZM214.39 21.28L217.846 16.744V16.72H214.594V15.88H219.202V16.456L215.638 21.136V21.16H219.334V22H214.39V21.28ZM224.035 17.44C224.035 16.96 223.771 16.552 222.787 16.552C221.623 16.552 221.239 16.888 221.179 17.776H220.219C220.279 16.6 221.011 15.712 222.787 15.712C223.951 15.712 224.995 16.168 224.995 17.644V20.62C224.995 21.1 225.079 21.364 225.691 21.292V21.964C225.439 22.048 225.307 22.06 225.127 22.06C224.551 22.06 224.203 21.904 224.035 21.232H224.011C223.627 21.808 222.943 22.168 221.935 22.168C220.699 22.168 219.919 21.46 219.919 20.428C219.919 19.036 220.951 18.676 222.535 18.376C223.567 18.184 224.035 18.052 224.035 17.44ZM222.031 21.328C223.171 21.328 224.035 20.812 224.035 19.636V18.616C223.855 18.796 223.267 18.964 222.619 19.096C221.431 19.348 220.879 19.648 220.879 20.38C220.879 20.98 221.239 21.328 222.031 21.328ZM228.955 16.72H227.755V20.404C227.755 21.1 228.139 21.22 228.955 21.16V22C228.739 22.048 228.487 22.072 228.235 22.072C227.419 22.072 226.795 21.748 226.795 20.5V16.72H225.895V15.88H226.795V13.84H227.755V15.88H228.955V16.72ZM230.559 14.692C230.295 14.692 229.959 14.488 229.959 14.116C229.959 13.744 230.295 13.54 230.559 13.54C230.835 13.54 231.159 13.744 231.159 14.116C231.159 14.488 230.835 14.692 230.559 14.692ZM230.079 15.88H231.039V22H230.079V15.88ZM235.13 22.168C233.258 22.168 232.13 20.848 232.13 18.94C232.13 17.032 233.258 15.712 235.13 15.712C236.99 15.712 238.118 17.032 238.118 18.94C238.118 20.848 236.99 22.168 235.13 22.168ZM235.13 21.328C236.498 21.328 237.158 20.248 237.158 18.94C237.158 17.632 236.498 16.552 235.13 16.552C233.75 16.552 233.09 17.632 233.09 18.94C233.09 20.248 233.75 21.328 235.13 21.328ZM242.088 15.712C243.204 15.712 244.14 16.324 244.14 17.728V22H243.18V17.968C243.18 17.176 242.808 16.552 241.848 16.552C240.768 16.552 240.048 17.236 240.048 18.184V22H239.088V15.88H240.048V16.612H240.072C240.396 16.18 241.044 15.712 242.088 15.712Z" fill="#0c7a50"/>
</svg>
