<svg width="100" height="100" viewBox="0 0 100 100" fill="none" xmlns="http://www.w3.org/2000/svg">
<circle cx="50" cy="50" r="50" transform="matrix(-1 0 0 1 100 0)" fill="#EDF8F6"/>
<path d="M66 62C66 59.8783 65.1571 57.8434 63.6569 56.3431C62.1566 54.8429 60.1217 54 58 54H42C39.8783 54 37.8434 54.8429 36.3431 56.3431C34.8429 57.8434 34 59.8783 34 62C34 63.0609 34.4214 64.0783 35.1716 64.8284C35.9217 65.5786 36.9391 66 38 66H62C63.0609 66 64.0783 65.5786 64.8284 64.8284C65.5786 64.0783 66 63.0609 66 62Z" stroke="#0C7A50" stroke-width="2.5" stroke-linejoin="round"/>
<path d="M50 46C46.6863 46 44 43.3137 44 40C44 36.6863 46.6863 34 50 34C53.3137 34 56 36.6863 56 40C56 43.3137 53.3137 46 50 46Z" stroke="#0C7A50" stroke-width="2.5"/>
</svg>
