<svg width="39" height="32" viewBox="0 0 39 32" fill="none" xmlns="http://www.w3.org/2000/svg">
<path d="M38.2858 17.0954V24.36C38.2324 24.3738 38.1776 24.3871 38.1242 24.4008C35.062 25.1824 31.9602 25.8074 28.8723 26.4897C25.1293 27.3178 21.6723 28.6427 19.2967 31.8771C19.2704 31.9141 19.2032 31.9222 19.0292 32C17.8626 30.3766 16.3808 29.1419 14.6044 28.2441C12.1086 26.9823 9.38921 26.4708 6.68887 25.9018C4.45051 25.4311 2.2069 24.9783 0 24.3956V17.1296C2.2069 17.7123 4.45051 18.165 6.68887 18.6372C9.38921 19.2061 12.1086 19.7177 14.6044 20.9795C16.3808 21.8758 17.8626 23.112 19.0292 24.7354C19.2032 24.6576 19.2704 24.6495 19.2967 24.6125C21.6719 21.3762 25.1288 20.0532 28.8723 19.2251C31.9602 18.5432 35.0625 17.9182 38.1242 17.1362C38.1776 17.121 38.2324 17.1092 38.2858 17.0954Z" fill="#0C7A50"/>
<path d="M30.733 3.86826C30.7278 3.95795 30.6501 4.02581 30.5299 4.04811C30.4479 4.0633 30.3664 4.07943 30.2839 4.09557C30.18 4.1155 30.0756 4.13163 29.9731 4.15725C29.8263 4.19379 29.6799 4.23508 29.535 4.27874C29.432 4.30958 29.3319 4.34707 29.2303 4.38218C29.0463 4.44625 28.8718 4.53261 28.7078 4.63653C28.5157 4.75801 28.3378 4.89895 28.2024 5.08307C28.1071 5.21309 28.0141 5.34786 27.9397 5.49117C27.8549 5.65346 27.7843 5.82476 27.7204 5.99702C27.6718 6.12799 27.6408 6.26513 27.6065 6.40085C27.5631 6.57026 27.523 6.74109 27.4835 6.91145C27.4635 6.99971 27.4501 7.0894 27.4291 7.17718C27.4067 7.26924 27.3428 7.31385 27.2456 7.3129C27.1383 7.32524 27.0668 7.21562 27.0511 7.1359C27.0082 6.92426 26.9652 6.71309 26.9171 6.50287C26.8842 6.35909 26.8475 6.21625 26.8046 6.07532C26.7712 5.96618 26.7288 5.85941 26.684 5.75453C26.6387 5.64776 26.5872 5.54384 26.5352 5.44039C26.4346 5.23824 26.2968 5.06314 26.1352 4.90654C25.945 4.72195 25.7238 4.58291 25.483 4.47234C25.2709 4.37412 25.0511 4.29819 24.826 4.23555C24.6678 4.19142 24.508 4.14966 24.3474 4.11312C24.2377 4.08797 24.1247 4.07563 24.0141 4.05428C23.9636 4.04432 23.9121 4.03245 23.8649 4.01252C23.7963 3.98358 23.7696 3.92378 23.7691 3.85166C23.7681 3.7781 23.7867 3.71309 23.8601 3.6832C23.9092 3.66279 23.9617 3.64998 24.0137 3.63859C24.212 3.59446 24.4113 3.55222 24.6096 3.50857C24.6692 3.49528 24.7297 3.48389 24.7884 3.46586C24.9614 3.41319 25.1378 3.36668 25.3052 3.29977C25.4549 3.23951 25.5965 3.15694 25.74 3.08101C25.944 2.97329 26.1138 2.82239 26.2649 2.65109C26.3936 2.50493 26.4985 2.34264 26.5791 2.16516C26.6372 2.03846 26.6983 1.91176 26.7493 1.78174C26.7912 1.67402 26.8208 1.56108 26.8532 1.45004C26.8837 1.34564 26.9128 1.24077 26.9395 1.13543C26.9581 1.06235 26.9733 0.987846 26.9872 0.913344C27.0096 0.79566 27.0296 0.677027 27.0501 0.559342C27.0644 0.479146 27.104 0.41461 27.1826 0.389459C27.2608 0.364309 27.3466 0.370478 27.3938 0.444031C27.4306 0.500975 27.4458 0.573104 27.4611 0.640488C27.493 0.780475 27.5164 0.92236 27.5483 1.06282C27.5817 1.20993 27.6174 1.35703 27.6599 1.50177C27.6947 1.62182 27.7381 1.73951 27.7824 1.85672C27.8148 1.94261 27.8534 2.0266 27.8906 2.11107C27.9788 2.30752 28.0928 2.48737 28.2339 2.65061C28.427 2.87317 28.6568 3.04922 28.9238 3.17355C29.0744 3.2433 29.2289 3.30452 29.3843 3.36383C29.6112 3.44973 29.8458 3.50999 30.0847 3.55555C30.2377 3.58497 30.3893 3.61818 30.5423 3.64761C30.673 3.67228 30.7402 3.74868 30.733 3.87064V3.86826Z" fill="#0C7A50"/>
<path d="M15.8671 2.45511C15.8633 2.51822 15.8089 2.56615 15.7241 2.58133C15.6664 2.59177 15.6092 2.60364 15.5515 2.61455C15.4785 2.62879 15.4051 2.6397 15.3331 2.65773C15.2297 2.68336 15.1272 2.71278 15.0251 2.74315C14.9531 2.76498 14.8821 2.79108 14.8111 2.81575C14.6819 2.86083 14.5593 2.9211 14.444 2.99418C14.309 3.07959 14.1841 3.1783 14.0888 3.30784C14.0216 3.39943 13.9567 3.49386 13.9043 3.59446C13.8447 3.70835 13.7951 3.82888 13.7503 3.94989C13.7164 4.04195 13.6945 4.13828 13.6702 4.23366C13.6397 4.35277 13.6116 4.47235 13.5839 4.59241C13.5696 4.65457 13.5605 4.71721 13.5458 4.7789C13.53 4.84343 13.4852 4.87475 13.417 4.87428C13.3417 4.88282 13.2912 4.80595 13.2802 4.74995C13.2502 4.60142 13.2197 4.45289 13.1858 4.30531C13.1625 4.20424 13.1372 4.10411 13.1067 4.00493C13.0833 3.92806 13.0533 3.85356 13.0218 3.77953C12.9899 3.70455 12.9536 3.63148 12.9174 3.55887C12.8468 3.41699 12.7501 3.29408 12.6366 3.18399C12.5026 3.05444 12.3477 2.95669 12.1784 2.87887C12.0292 2.81006 11.8747 2.75644 11.7169 2.71231C11.6054 2.68146 11.4933 2.65204 11.3808 2.62641C11.3036 2.60886 11.2244 2.59984 11.1467 2.58513C11.111 2.57801 11.0752 2.56947 11.0418 2.55571C10.9937 2.5353 10.9751 2.49307 10.9746 2.44277C10.9741 2.39105 10.987 2.34549 11.0385 2.32414C11.0728 2.3099 11.11 2.30088 11.1463 2.29282C11.2855 2.2615 11.4256 2.23208 11.5648 2.20123C11.6068 2.19222 11.6492 2.18415 11.6902 2.17134C11.8118 2.13432 11.9358 2.10158 12.0535 2.0546C12.1589 2.01237 12.258 1.954 12.3591 1.90085C12.5026 1.8254 12.6218 1.71911 12.7277 1.59858C12.8178 1.49608 12.8917 1.38171 12.9484 1.25691C12.9894 1.1677 13.0323 1.07896 13.0681 0.987377C13.0976 0.911452 13.1181 0.832204 13.141 0.754381C13.1625 0.681303 13.183 0.607276 13.2015 0.533248C13.2144 0.481999 13.2254 0.4298 13.2349 0.377127C13.2507 0.294558 13.265 0.21104 13.2793 0.128471C13.2893 0.072002 13.3169 0.0269214 13.3722 0.00936362C13.4275 -0.00819411 13.4876 -0.00392331 13.5205 0.0478008C13.5462 0.0876616 13.5567 0.138437 13.5677 0.18589C13.5901 0.284118 13.6068 0.384245 13.6292 0.482473C13.653 0.585922 13.6778 0.68937 13.7079 0.79092C13.7322 0.875387 13.7632 0.957956 13.7942 1.04005C13.817 1.10032 13.8437 1.15963 13.8704 1.21847C13.9324 1.35656 14.0125 1.48279 14.1117 1.59763C14.2475 1.75422 14.4087 1.8776 14.5961 1.96492C14.7019 2.01379 14.8106 2.05697 14.9198 2.09873C15.0795 2.159 15.244 2.20123 15.4118 2.2335C15.5191 2.25391 15.6258 2.27763 15.7331 2.29804C15.8247 2.31512 15.8718 2.36922 15.8671 2.45463V2.45511Z" fill="#0C7A50"/>
<path d="M24.9502 11.0631C24.9416 11.2126 24.8124 11.326 24.6113 11.363C24.4744 11.3882 24.3381 11.4157 24.2012 11.4418C24.0282 11.475 23.8542 11.5021 23.683 11.5448C23.438 11.606 23.1939 11.6748 22.9521 11.7479C22.7805 11.7991 22.6132 11.8623 22.4444 11.9206C22.1374 12.0279 21.8465 12.1712 21.5729 12.3444C21.2525 12.5475 20.956 12.7819 20.73 13.0889C20.5708 13.3063 20.4163 13.5307 20.2919 13.7694C20.1503 14.0404 20.0325 14.3256 19.9257 14.6126C19.8451 14.8309 19.7932 15.0601 19.7355 15.286C19.6635 15.5688 19.5963 15.8531 19.5305 16.1378C19.4971 16.2849 19.4752 16.4344 19.4399 16.581C19.4027 16.7348 19.2959 16.8093 19.1338 16.8074C18.9546 16.8278 18.8354 16.6451 18.8091 16.5127C18.7376 16.1601 18.6656 15.8075 18.5855 15.4573C18.5307 15.2177 18.4697 14.9795 18.3977 14.7446C18.3424 14.5623 18.2714 14.3849 18.1965 14.2098C18.1212 14.0318 18.0349 13.8586 17.9486 13.6859C17.7808 13.349 17.5515 13.0571 17.2816 12.7957C16.9641 12.4877 16.5956 12.2566 16.1941 12.0715C15.8404 11.9078 15.4738 11.7811 15.0986 11.6767C14.8344 11.6036 14.5684 11.5334 14.3009 11.4727C14.1179 11.4304 13.93 11.4095 13.7451 11.3744C13.6607 11.3578 13.5753 11.3379 13.4962 11.3042C13.3818 11.2563 13.3374 11.1561 13.3365 11.0356C13.335 10.9132 13.366 10.805 13.4886 10.7547C13.5706 10.721 13.6578 10.6996 13.7446 10.6802C14.0754 10.6062 14.4073 10.5359 14.7386 10.4629C14.8383 10.441 14.9393 10.422 15.0366 10.3917C15.325 10.3034 15.6192 10.2265 15.8986 10.1145C16.1484 10.0139 16.3844 9.87586 16.6237 9.74963C16.9636 9.57026 17.2473 9.31875 17.499 9.03261C17.7131 8.78918 17.8885 8.51774 18.0235 8.22211C18.1207 8.01047 18.2223 7.79977 18.3071 7.58291C18.3767 7.40306 18.4263 7.21467 18.4807 7.02961C18.5317 6.85593 18.5803 6.68082 18.6246 6.50525C18.6556 6.38329 18.6809 6.25896 18.7038 6.13511C18.741 5.93865 18.7748 5.74125 18.8087 5.54432C18.8325 5.4105 18.8983 5.30325 19.0294 5.26102C19.16 5.21879 19.3031 5.22923 19.3817 5.35213C19.4427 5.44656 19.468 5.56709 19.4938 5.67956C19.5472 5.91303 19.5863 6.14982 19.6392 6.38329C19.6954 6.62815 19.7545 6.87396 19.8256 7.1155C19.8837 7.31575 19.9562 7.51221 20.0301 7.70724C20.0845 7.85055 20.1483 7.99054 20.2108 8.131C20.3576 8.45843 20.5474 8.7588 20.7834 9.03071C21.1052 9.40227 21.4885 9.69506 21.9333 9.90243C22.1846 10.0187 22.442 10.1212 22.7014 10.2194C23.0799 10.3627 23.4713 10.4629 23.8689 10.5388C24.124 10.5877 24.3772 10.6432 24.6322 10.6921C24.8496 10.7329 24.9621 10.8605 24.9497 11.0641L24.9502 11.0631Z" fill="#0C7A50"/>
</svg>
