<svg width="38" height="40" viewBox="0 0 38 40" fill="none" xmlns="http://www.w3.org/2000/svg">
<path d="M9.96902 39.9937H28.6963C33.8245 39.9937 37.9993 35.5268 37.9993 30.0262V9.9675C37.9993 4.47304 33.8245 0 28.6963 0H9.96902C4.84085 0 0.666016 4.46688 0.666016 9.9675V30.0325C0.666016 35.527 4.84085 40 9.96902 40V39.9937ZM3.61296 9.96698C3.61296 6.21547 6.46206 3.15691 9.96902 3.15691H28.6963C32.1978 3.15691 35.0524 6.20952 35.0524 9.96698V30.032C35.0524 33.7835 32.2033 36.842 28.6963 36.842H9.96902C6.46761 36.842 3.61296 33.7894 3.61296 30.032V9.96698Z" fill="white"/>
<path d="M9.18831 12.2815H29.4775C30.2929 12.2815 30.951 11.5764 30.951 10.7027C30.951 9.82908 30.2929 9.12402 29.4775 9.12402H9.18831C8.3729 9.12402 7.71484 9.82908 7.71484 10.7027C7.71484 11.5764 8.3729 12.2815 9.18831 12.2815Z" fill="white"/>
<path d="M9.18831 21.5754H29.4775C30.2929 21.5754 30.951 20.8704 30.951 19.9967C30.951 19.123 30.2929 18.418 29.4775 18.418H9.18831C8.3729 18.418 7.71484 19.123 7.71484 19.9967C7.71484 20.8704 8.3729 21.5754 9.18831 21.5754Z" fill="white"/>
<path d="M9.18831 30.8684H29.4775C30.2929 30.8684 30.951 30.1633 30.951 29.2897C30.951 28.416 30.2929 27.7109 29.4775 27.7109H9.18831C8.3729 27.7109 7.71484 28.416 7.71484 29.2897C7.71484 30.1633 8.3729 30.8684 9.18831 30.8684Z" fill="white"/>
</svg>
